ffmpeg started on 2025-06-07 at 16:15:25
Report written to "D:\Convert\FFMetrics\reports\psnr_report-6.txt"
Log level: 32
Command line:
ffmpeg -hide_banner -nostdin -i "G:\\\xc0\xed\xe8\xec\xe5\\\xce\xed\xe3\xee\xe8\xed\xe3\xe8\\!_36_\xce\xf1\xe5\xed\xfc_2024\\DreamCast\\\xd6\xe5\xeb\xe8\xf2\xe5\xeb\xfc, \xea\xee\xf2\xee\xf0\xee\xe3\xee \xe8\xf1\xea\xeb\xfe\xf7\xe8\xeb\xe8 \xe8\xe7 \xe3\xf0\xf3\xef\xef\xfb, \xee\xea\xe0\xe7\xe0\xeb\xf1\xff \xf1\xe8\xeb\xfc\xed\xe5\xe9\xf8\xe8\xec!\\[DC] sonochiyushi - 10_Telegram_HEVC.mkv" -i "G:\\\xc0\xed\xe8\xec\xe5\\\xce\xed\xe3\xee\xe8\xed\xe3\xe8\\!_36_\xce\xf1\xe5\xed\xfc_2024\\DreamCast\\\xd6\xe5\xeb\xe8\xf2\xe5\xeb\xfc, \xea\xee\xf2\xee\xf0\xee\xe3\xee \xe8\xf1\xea\xeb\xfe\xf7\xe8\xeb\xe8 \xe8\xe7 \xe3\xf0\xf3\xef\xef\xfb, \xee\xea\xe0\xe7\xe0\xeb\xf1\xff \xf1\xe8\xeb\xfc\xed\xe5\xe9\xf8\xe8\xec!\\[DC] sonochiyushi - 10_Telegram.mp4" -lavfi "[0:v]settb=AVTB,setpts=PTS-STARTPTS,format=pix_fmts=yuv420p10,fps=24000/1001,scale=1920:1080:flags=bicubic[main];[1:v]settb=AVTB,setpts=PTS-STARTPTS,format=pix_fmts=yuv420p,fps=24000/1001,scale=1920:1080:flags=bicubic[ref];[main][ref]psnr=eof_action=endall:stats_file='D\\:/Convert/FFMetrics/logs/psnr_logfile-6.txt'" -f null -
Input #0, matroska,webm, from 'G:\Аниме\Онгоинги\!_36_Осень_2024\DreamCast\Целитель, которого исключили из группы, оказался сильнейшим!\[DC] sonochiyushi - 10_Telegram_HEVC.mkv':
  Metadata:
    COMPATIBLE_BRANDS: isomiso2avc1mp41
    MAJOR_BRAND     : isom
    MINOR_VERSION   : 512
    ENCODER         : Lavf61.7.100
  Duration: 00:23:30.69, start: -0.021000, bitrate: 1347 kb/s
  Stream #0:0: Video: hevc (Main 10), yuv420p10le(tv, bt709, progressive), 1920x1080 [SAR 1:1 DAR 16:9], 23.98 fps, 23.98 tbr, 1k tbn (default)
      Metadata:
        HANDLER_NAME    : VideoHandler
        VENDOR_ID       : [0][0][0][0]
        ENCODER         : Lavc61.19.100 libx265
        BPS             : 1149943
        DURATION        : 00:23:30.533708333
        NUMBER_OF_FRAMES: 33819
        NUMBER_OF_BYTES : 202754145
        _STATISTICS_WRITING_APP: mkvpropedit v66.0.0 ('Josie') 64-bit
        _STATISTICS_WRITING_DATE_UTC: 2025-06-05 09:07:20
        _STATISTICS_TAGS: BPS DURATION NUMBER_OF_FRAMES NUMBER_OF_BYTES
  Stream #0:1: Audio: aac (LC), 48000 Hz, stereo, fltp (default)
      Metadata:
        HANDLER_NAME    : SoundHandler
        VENDOR_ID       : [0][0][0][0]
        ENCODER         : Lavc61.19.100 aac
        BPS             : 193481
        DURATION        : 00:23:30.688000000
        NUMBER_OF_FRAMES: 66127
        NUMBER_OF_BYTES : 34117724
        _STATISTICS_WRITING_APP: mkvpropedit v66.0.0 ('Josie') 64-bit
        _STATISTICS_WRITING_DATE_UTC: 2025-06-05 09:07:20
        _STATISTICS_TAGS: BPS DURATION NUMBER_OF_FRAMES NUMBER_OF_BYTES
Input #1, mov,mp4,m4a,3gp,3g2,mj2, from 'G:\Аниме\Онгоинги\!_36_Осень_2024\DreamCast\Целитель, которого исключили из группы, оказался сильнейшим!\[DC] sonochiyushi - 10_Telegram.mp4':
  Metadata:
    major_brand     : isom
    minor_version   : 512
    compatible_brands: isomiso2avc1mp41
    encoder         : Lavf61.1.100
  Duration: 00:23:30.65, start: 0.000000, bitrate: 3637 kb/s
  Stream #1:0[0x1](und): Video: h264 (High) (avc1 / 0x31637661), yuv420p(tv, bt709, progressive), 1920x1080 [SAR 1:1 DAR 16:9], 3489 kb/s, 23.98 fps, 23.98 tbr, 24k tbn (default)
      Metadata:
        handler_name    : VideoHandler
        vendor_id       : [0][0][0][0]
        encoder         : Lavc61.3.100 h264_qsv
  Stream #1:1[0x2](und): Audio: aac (HE-AACv2) (mp4a / 0x6134706D), 48000 Hz, stereo, fltp, 144 kb/s (default)
      Metadata:
        handler_name    : SoundHandler
        vendor_id       : [0][0][0][0]
Stream mapping:
  Stream #0:0 (hevc) -> settb:default
  Stream #1:0 (h264) -> settb:default
  psnr:default -> Stream #0:0 (wrapped_avframe)
  Stream #0:1 -> #0:1 (aac (native) -> pcm_s16le (native))
Output #0, null, to 'pipe:':
  Metadata:
    COMPATIBLE_BRANDS: isomiso2avc1mp41
    MAJOR_BRAND     : isom
    MINOR_VERSION   : 512
    encoder         : Lavf61.7.100
  Stream #0:0: Video: wrapped_avframe, yuv420p10le(tv, bt709, progressive), 1920x1080 [SAR 1:1 DAR 16:9], q=2-31, 200 kb/s, 23.98 fps, 23.98 tbn
      Metadata:
        encoder         : Lavc61.19.100 wrapped_avframe
  Stream #0:1: Audio: pcm_s16le, 48000 Hz, stereo, s16, 1536 kb/s (default)
      Metadata:
        HANDLER_NAME    : SoundHandler
        VENDOR_ID       : [0][0][0][0]
        _STATISTICS_TAGS: BPS DURATION NUMBER_OF_FRAMES NUMBER_OF_BYTES
        BPS             : 193481
        DURATION        : 00:23:30.688000000
        NUMBER_OF_FRAMES: 66127
        NUMBER_OF_BYTES : 34117724
        _STATISTICS_WRITING_APP: mkvpropedit v66.0.0 ('Josie') 64-bit
        _STATISTICS_WRITING_DATE_UTC: 2025-06-05 09:07:20
        encoder         : Lavc61.19.100 pcm_s16le
frame=  178 fps=0.0 q=-0.0 size=N/A time=00:00:07.42 bitrate=N/A speed=14.2x    frame=  441 fps=426 q=-0.0 size=N/A time=00:00:18.39 bitrate=N/A speed=17.8x    frame=  671 fps=434 q=-0.0 size=N/A time=00:00:27.98 bitrate=N/A speed=18.1x    frame=  957 fps=462 q=-0.0 size=N/A time=00:00:39.91 bitrate=N/A speed=19.3x    frame= 1221 fps=473 q=-0.0 size=N/A time=00:00:50.92 bitrate=N/A speed=19.7x    frame= 1493 fps=483 q=-0.0 size=N/A time=00:01:02.27 bitrate=N/A speed=20.1x    frame= 1791 fps=495 q=-0.0 size=N/A time=00:01:14.69 bitrate=N/A speed=20.6x    frame= 2052 fps=497 q=-0.0 size=N/A time=00:01:25.58 bitrate=N/A speed=20.7x    frame= 2334 fps=503 q=-0.0 size=N/A time=00:01:37.34 bitrate=N/A speed=  21x    frame= 2621 fps=508 q=-0.0 size=N/A time=00:01:49.31 bitrate=N/A speed=21.2x    frame= 2892 fps=510 q=-0.0 size=N/A time=00:02:00.62 bitrate=N/A speed=21.3x    frame= 3115 fps=503 q=-0.0 size=N/A time=00:02:09.92 bitrate=N/A speed=  21x    frame= 3307 fps=493 q=-0.0 size=N/A time=00:02:17.92 bitrate=N/A speed=20.6x    frame= 3555 fps=492 q=-0.0 size=N/A time=00:02:28.27 bitrate=N/A speed=20.5x    frame= 3757 fps=486 q=-0.0 size=N/A time=00:02:36.69 bitrate=N/A speed=20.3x    frame= 3973 fps=481 q=-0.0 size=N/A time=00:02:45.70 bitrate=N/A speed=20.1x    frame= 4167 fps=475 q=-0.0 size=N/A time=00:02:53.79 bitrate=N/A speed=19.8x    frame= 4358 fps=469 q=-0.0 size=N/A time=00:03:01.76 bitrate=N/A speed=19.6x    frame= 4563 fps=466 q=-0.0 size=N/A time=00:03:10.31 bitrate=N/A speed=19.4x    frame= 4771 fps=462 q=-0.0 size=N/A time=00:03:18.99 bitrate=N/A speed=19.3x    frame= 4932 fps=455 q=-0.0 size=N/A time=00:03:25.70 bitrate=N/A speed=  19x    frame= 5179 fps=456 q=-0.0 size=N/A time=00:03:36.00 bitrate=N/A speed=  19x    frame= 5434 fps=458 q=-0.0 size=N/A time=00:03:46.64 bitrate=N/A speed=19.1x    frame= 5633 fps=455 q=-0.0 size=N/A time=00:03:54.94 bitrate=N/A speed=  19x    frame= 5836 fps=452 q=-0.0 size=N/A time=00:04:03.40 bitrate=N/A speed=18.9x    frame= 6120 fps=456 q=-0.0 size=N/A time=00:04:15.25 bitrate=N/A speed=  19x    frame= 6366 fps=457 q=-0.0 size=N/A time=00:04:25.51 bitrate=N/A speed=19.1x    frame= 6647 fps=460 q=-0.0 size=N/A time=00:04:37.23 bitrate=N/A speed=19.2x    frame= 6916 fps=462 q=-0.0 size=N/A time=00:04:48.45 bitrate=N/A speed=19.3x    frame= 7180 fps=464 q=-0.0 size=N/A time=00:04:59.46 bitrate=N/A speed=19.3x    frame= 7444 fps=466 q=-0.0 size=N/A time=00:05:10.47 bitrate=N/A speed=19.4x    frame= 7709 fps=467 q=-0.0 size=N/A time=00:05:21.52 bitrate=N/A speed=19.5x    frame= 7996 fps=470 q=-0.0 size=N/A time=00:05:33.49 bitrate=N/A speed=19.6x    frame= 8270 fps=472 q=-0.0 size=N/A time=00:05:44.92 bitrate=N/A speed=19.7x    frame= 8525 fps=472 q=-0.0 size=N/A time=00:05:55.56 bitrate=N/A speed=19.7x    frame= 8811 fps=475 q=-0.0 size=N/A time=00:06:07.49 bitrate=N/A speed=19.8x    frame= 9063 fps=475 q=-0.0 size=N/A time=00:06:18.00 bitrate=N/A speed=19.8x    frame= 9329 fps=476 q=-0.0 size=N/A time=00:06:29.09 bitrate=N/A speed=19.9x    frame= 9580 fps=476 q=-0.0 size=N/A time=00:06:39.56 bitrate=N/A speed=19.9x    frame= 9785 fps=474 q=-0.0 size=N/A time=00:06:48.11 bitrate=N/A speed=19.8x    frame=10040 fps=475 q=-0.0 size=N/A time=00:06:58.75 bitrate=N/A speed=19.8x    frame=10328 fps=477 q=-0.0 size=N/A time=00:07:10.76 bitrate=N/A speed=19.9x    frame=10601 fps=478 q=-0.0 size=N/A time=00:07:22.15 bitrate=N/A speed=19.9x    frame=10836 fps=477 q=-0.0 size=N/A time=00:07:31.95 bitrate=N/A speed=19.9x    frame=11112 fps=479 q=-0.0 size=N/A time=00:07:43.46 bitrate=N/A speed=  20x    frame=11336 fps=478 q=-0.0 size=N/A time=00:07:52.80 bitrate=N/A speed=19.9x    frame=11574 fps=478 q=-0.0 size=N/A time=00:08:02.73 bitrate=N/A speed=19.9x    frame=11820 fps=477 q=-0.0 size=N/A time=00:08:12.99 bitrate=N/A speed=19.9x    frame=12068 fps=478 q=-0.0 size=N/A time=00:08:23.33 bitrate=N/A speed=19.9x    frame=12308 fps=477 q=-0.0 size=N/A time=00:08:33.34 bitrate=N/A speed=19.9x    frame=12551 fps=477 q=-0.0 size=N/A time=00:08:43.48 bitrate=N/A speed=19.9x    frame=12791 fps=477 q=-0.0 size=N/A time=00:08:53.49 bitrate=N/A speed=19.9x    frame=13046 fps=477 q=-0.0 size=N/A time=00:09:04.12 bitrate=N/A speed=19.9x    frame=13282 fps=477 q=-0.0 size=N/A time=00:09:13.97 bitrate=N/A speed=19.9x    frame=13551 fps=478 q=-0.0 size=N/A time=00:09:25.18 bitrate=N/A speed=19.9x    frame=13811 fps=478 q=-0.0 size=N/A time=00:09:36.03 bitrate=N/A speed=19.9x    frame=14063 fps=478 q=-0.0 size=N/A time=00:09:46.54 bitrate=N/A speed=  20x    frame=14296 fps=478 q=-0.0 size=N/A time=00:09:56.26 bitrate=N/A speed=19.9x    frame=14521 fps=477 q=-0.0 size=N/A time=00:10:05.64 bitrate=N/A speed=19.9x    frame=14726 fps=476 q=-0.0 size=N/A time=00:10:14.19 bitrate=N/A speed=19.8x    frame=14955 fps=475 q=-0.0 size=N/A time=00:10:23.74 bitrate=N/A speed=19.8x    frame=15174 fps=474 q=-0.0 size=N/A time=00:10:32.88 bitrate=N/A speed=19.8x    frame=15411 fps=474 q=-0.0 size=N/A time=00:10:42.76 bitrate=N/A speed=19.8x    frame=15625 fps=473 q=-0.0 size=N/A time=00:10:51.69 bitrate=N/A speed=19.7x    frame=15898 fps=474 q=-0.0 size=N/A time=00:11:03.07 bitrate=N/A speed=19.8x    frame=16121 fps=474 q=-0.0 size=N/A time=00:11:12.38 bitrate=N/A speed=19.8x    frame=16366 fps=474 q=-0.0 size=N/A time=00:11:22.59 bitrate=N/A speed=19.8x    frame=16581 fps=473 q=-0.0 size=N/A time=00:11:31.56 bitrate=N/A speed=19.7x    frame=16857 fps=474 q=-0.0 size=N/A time=00:11:43.07 bitrate=N/A speed=19.8x    frame=17081 fps=473 q=-0.0 size=N/A time=00:11:52.42 bitrate=N/A speed=19.7x    frame=17329 fps=473 q=-0.0 size=N/A time=00:12:02.76 bitrate=N/A speed=19.7x    frame=17619 fps=475 q=-0.0 size=N/A time=00:12:14.85 bitrate=N/A speed=19.8x    frame=17895 fps=475 q=-0.0 size=N/A time=00:12:26.37 bitrate=N/A speed=19.8x    frame=18150 fps=476 q=-0.0 size=N/A time=00:12:37.00 bitrate=N/A speed=19.8x    frame=18391 fps=476 q=-0.0 size=N/A time=00:12:47.05 bitrate=N/A speed=19.8x    frame=18645 fps=476 q=-0.0 size=N/A time=00:12:57.65 bitrate=N/A speed=19.8x    frame=18896 fps=476 q=-0.0 size=N/A time=00:13:08.12 bitrate=N/A speed=19.8x    frame=19072 fps=474 q=-0.0 size=N/A time=00:13:15.46 bitrate=N/A speed=19.8x    frame=19290 fps=473 q=-0.0 size=N/A time=00:13:24.55 bitrate=N/A speed=19.7x    frame=19491 fps=472 q=-0.0 size=N/A time=00:13:32.93 bitrate=N/A speed=19.7x    frame=19752 fps=473 q=-0.0 size=N/A time=00:13:43.82 bitrate=N/A speed=19.7x    frame=20023 fps=473 q=-0.0 size=N/A time=00:13:55.12 bitrate=N/A speed=19.7x    frame=20246 fps=473 q=-0.0 size=N/A time=00:14:04.42 bitrate=N/A speed=19.7x    frame=20491 fps=473 q=-0.0 size=N/A time=00:14:14.64 bitrate=N/A speed=19.7x    frame=20698 fps=472 q=-0.0 size=N/A time=00:14:23.27 bitrate=N/A speed=19.7x    frame=20948 fps=472 q=-0.0 size=N/A time=00:14:33.70 bitrate=N/A speed=19.7x    frame=21191 fps=472 q=-0.0 size=N/A time=00:14:43.84 bitrate=N/A speed=19.7x    frame=21410 fps=472 q=-0.0 size=N/A time=00:14:52.97 bitrate=N/A speed=19.7x    frame=21636 fps=471 q=-0.0 size=N/A time=00:15:02.40 bitrate=N/A speed=19.7x    frame=21877 fps=471 q=-0.0 size=N/A time=00:15:12.45 bitrate=N/A speed=19.7x    frame=22103 fps=471 q=-0.0 size=N/A time=00:15:21.87 bitrate=N/A speed=19.6x    frame=22351 fps=471 q=-0.0 size=N/A time=00:15:32.22 bitrate=N/A speed=19.6x    frame=22609 fps=471 q=-0.0 size=N/A time=00:15:43.02 bitrate=N/A speed=19.7x    frame=22817 fps=471 q=-0.0 size=N/A time=00:15:51.65 bitrate=N/A speed=19.6x    frame=23017 fps=470 q=-0.0 size=N/A time=00:16:00.00 bitrate=N/A speed=19.6x    frame=23249 fps=469 q=-0.0 size=N/A time=00:16:09.67 bitrate=N/A speed=19.6x    frame=23442 fps=469 q=-0.0 size=N/A time=00:16:17.72 bitrate=N/A speed=19.5x    frame=23657 fps=468 q=-0.0 size=N/A time=00:16:26.69 bitrate=N/A speed=19.5x    frame=23900 fps=468 q=-0.0 size=N/A time=00:16:36.82 bitrate=N/A speed=19.5x    frame=24129 fps=468 q=-0.0 size=N/A time=00:16:46.38 bitrate=N/A speed=19.5x    frame=24355 fps=467 q=-0.0 size=N/A time=00:16:55.80 bitrate=N/A speed=19.5x    frame=24568 fps=467 q=-0.0 size=N/A time=00:17:04.69 bitrate=N/A speed=19.5x    frame=24806 fps=467 q=-0.0 size=N/A time=00:17:14.61 bitrate=N/A speed=19.5x    frame=24999 fps=466 q=-0.0 size=N/A time=00:17:22.66 bitrate=N/A speed=19.4x    frame=25203 fps=465 q=-0.0 size=N/A time=00:17:31.17 bitrate=N/A speed=19.4x    frame=25412 fps=465 q=-0.0 size=N/A time=00:17:39.89 bitrate=N/A speed=19.4x    frame=25609 fps=464 q=-0.0 size=N/A time=00:17:48.10 bitrate=N/A speed=19.3x    frame=25847 fps=464 q=-0.0 size=N/A time=00:17:58.03 bitrate=N/A speed=19.3x    frame=26085 fps=464 q=-0.0 size=N/A time=00:18:07.96 bitrate=N/A speed=19.3x    frame=26353 fps=464 q=-0.0 size=N/A time=00:18:19.13 bitrate=N/A speed=19.4x    frame=26574 fps=464 q=-0.0 size=N/A time=00:18:28.35 bitrate=N/A speed=19.4x    frame=26762 fps=463 q=-0.0 size=N/A time=00:18:36.19 bitrate=N/A speed=19.3x    frame=26947 fps=462 q=-0.0 size=N/A time=00:18:43.91 bitrate=N/A speed=19.3x    frame=27139 fps=461 q=-0.0 size=N/A time=00:18:51.92 bitrate=N/A speed=19.2x    frame=27377 fps=461 q=-0.0 size=N/A time=00:19:01.84 bitrate=N/A speed=19.2x    frame=27575 fps=461 q=-0.0 size=N/A time=00:19:10.10 bitrate=N/A speed=19.2x    frame=27762 fps=460 q=-0.0 size=N/A time=00:19:17.90 bitrate=N/A speed=19.2x    frame=27940 fps=459 q=-0.0 size=N/A time=00:19:25.33 bitrate=N/A speed=19.1x    frame=28171 fps=459 q=-0.0 size=N/A time=00:19:34.96 bitrate=N/A speed=19.1x    frame=28412 fps=459 q=-0.0 size=N/A time=00:19:45.01 bitrate=N/A speed=19.1x    frame=28592 fps=458 q=-0.0 size=N/A time=00:19:52.52 bitrate=N/A speed=19.1x    frame=28850 fps=458 q=-0.0 size=N/A time=00:20:03.28 bitrate=N/A speed=19.1x    frame=29127 fps=459 q=-0.0 size=N/A time=00:20:14.83 bitrate=N/A speed=19.1x    frame=29369 fps=459 q=-0.0 size=N/A time=00:20:24.93 bitrate=N/A speed=19.1x    frame=29631 fps=459 q=-0.0 size=N/A time=00:20:35.85 bitrate=N/A speed=19.2x    frame=29896 fps=460 q=-0.0 size=N/A time=00:20:46.91 bitrate=N/A speed=19.2x    frame=30155 fps=460 q=-0.0 size=N/A time=00:20:57.71 bitrate=N/A speed=19.2x    frame=30392 fps=460 q=-0.0 size=N/A time=00:21:07.59 bitrate=N/A speed=19.2x    frame=30610 fps=460 q=-0.0 size=N/A time=00:21:16.69 bitrate=N/A speed=19.2x    frame=30872 fps=460 q=-0.0 size=N/A time=00:21:27.61 bitrate=N/A speed=19.2x    frame=31127 fps=461 q=-0.0 size=N/A time=00:21:38.25 bitrate=N/A speed=19.2x    frame=31359 fps=461 q=-0.0 size=N/A time=00:21:47.93 bitrate=N/A speed=19.2x    frame=31624 fps=461 q=-0.0 size=N/A time=00:21:58.98 bitrate=N/A speed=19.2x    frame=31865 fps=461 q=-0.0 size=N/A time=00:22:09.03 bitrate=N/A speed=19.2x    frame=32084 fps=461 q=-0.0 size=N/A time=00:22:18.17 bitrate=N/A speed=19.2x    frame=32362 fps=461 q=-0.0 size=N/A time=00:22:29.76 bitrate=N/A speed=19.2x    frame=32605 fps=461 q=-0.0 size=N/A time=00:22:39.90 bitrate=N/A speed=19.2x    frame=32800 fps=461 q=-0.0 size=N/A time=00:22:48.03 bitrate=N/A speed=19.2x    frame=33050 fps=461 q=-0.0 size=N/A time=00:22:58.46 bitrate=N/A speed=19.2x    frame=33263 fps=461 q=-0.0 size=N/A time=00:23:07.34 bitrate=N/A speed=19.2x    frame=33480 fps=460 q=-0.0 size=N/A time=00:23:16.39 bitrate=N/A speed=19.2x    frame=33754 fps=461 q=-0.0 size=N/A time=00:23:27.82 bitrate=N/A speed=19.2x    [Parsed_psnr_10 @ 000002576f78d700] PSNR y:48.557323 u:49.965428 v:50.361816 average:49.028515 min:41.519501 max:inf
[out#0/null @ 000002576fe4ba00] video:14532KiB audio:264508KiB subtitle:0KiB other streams:0KiB global headers:0KiB muxing overhead: unknown
frame=33819 fps=461 q=-0.0 Lsize=N/A time=00:23:30.53 bitrate=N/A speed=19.2x    
